<svg width="42" height="43" viewBox="0 0 42 43" fill="none" xmlns="http://www.w3.org/2000/svg">
<path d="M20.8333 29.4683L23.75 26.5214L20.4167 23.1536H29.1667V18.9439H20.4167L23.75 15.5761L20.8333 12.6293L12.5 21.0488L20.8333 29.4683ZM20.8333 42.0975C17.9514 42.0975 15.2431 41.545 12.7083 40.4399C10.1736 39.3349 7.96875 37.8352 6.09375 35.9408C4.21875 34.0464 2.73437 31.8187 1.64062 29.2578C0.546875 26.6969 0 23.9605 0 21.0488C0 18.137 0.546875 15.4007 1.64062 12.8397C2.73437 10.2788 4.21875 8.05115 6.09375 6.15676C7.96875 4.26238 10.1736 2.76265 12.7083 1.65759C15.2431 0.55253 17.9514 0 20.8333 0C23.7153 0 26.4236 0.55253 28.9583 1.65759C31.4931 2.76265 33.6979 4.26238 35.5729 6.15676C37.4479 8.05115 38.9323 10.2788 40.026 12.8397C41.1198 15.4007 41.6667 18.137 41.6667 21.0488C41.6667 23.9605 41.1198 26.6969 40.026 29.2578C38.9323 31.8187 37.4479 34.0464 35.5729 35.9408C33.6979 37.8352 31.4931 39.3349 28.9583 40.4399C26.4236 41.545 23.7153 42.0975 20.8333 42.0975ZM20.8333 37.8878C25.4861 37.8878 29.4271 36.2565 32.6562 32.9939C35.8854 29.7314 37.5 25.7497 37.5 21.0488C37.5 16.3479 35.8854 12.3662 32.6562 9.10359C29.4271 5.84103 25.4861 4.20975 20.8333 4.20975C16.1806 4.20975 12.2396 5.84103 9.01042 9.10359C5.78125 12.3662 4.16667 16.3479 4.16667 21.0488C4.16667 25.7497 5.78125 29.7314 9.01042 32.9939C12.2396 36.2565 16.1806 37.8878 20.8333 37.8878Z" fill="#1C1B1F"/>
</svg>
