<svg width="26" height="25" viewBox="0 0 26 25" fill="none" xmlns="http://www.w3.org/2000/svg">
<path d="M24.0351 25C21.044 25 18.1282 24.3345 15.2879 23.0035C12.4475 21.6725 9.9317 19.9132 7.74055 17.7257C5.5494 15.5382 3.7872 13.0266 2.45396 10.191C1.12072 7.35532 0.454102 4.44444 0.454102 1.45833C0.454102 1.04167 0.593222 0.694444 0.871464 0.416667C1.14971 0.138889 1.49751 0 1.91487 0H7.54926C7.87388 0 8.16371 0.104167 8.41876 0.3125C8.67382 0.520833 8.82453 0.787037 8.87091 1.11111L9.77519 5.97222C9.82157 6.2963 9.81577 6.59143 9.7578 6.85764C9.69984 7.12384 9.56651 7.36111 9.35783 7.56944L5.98415 10.9722C6.958 12.6389 8.1811 14.2014 9.65346 15.6597C11.1258 17.1181 12.7431 18.3796 14.5053 19.4444L17.7746 16.1806C17.9833 15.9722 18.2558 15.816 18.592 15.7118C18.9282 15.6076 19.2586 15.5787 19.5832 15.625L24.3829 16.5972C24.7075 16.6667 24.9741 16.8229 25.1828 17.066C25.3915 17.309 25.4958 17.5926 25.4958 17.9167V23.5417C25.4958 23.9583 25.3567 24.3056 25.0785 24.5833C24.8002 24.8611 24.4524 25 24.0351 25ZM4.6625 8.33333L6.958 6.04167L6.36673 2.77778H3.2713C3.38723 3.72685 3.54954 4.66435 3.75822 5.59028C3.9669 6.5162 4.26833 7.43056 4.6625 8.33333ZM17.1138 20.7639C18.0181 21.1574 18.9398 21.4699 19.8788 21.7014C20.8179 21.9329 21.7628 22.0833 22.7134 22.1528V19.0972L19.4441 18.4375L17.1138 20.7639Z" fill="black"/>
</svg>
