<svg width="40" height="39" viewBox="0 0 40 39" fill="none" xmlns="http://www.w3.org/2000/svg">
<path d="M11.7304 39C10.6551 39 9.73458 38.6181 8.96885 37.8544C8.20311 37.0906 7.82025 36.1725 7.82025 35.1C7.82025 34.0275 8.20311 33.1094 8.96885 32.3456C9.73458 31.5819 10.6551 31.2 11.7304 31.2C12.8057 31.2 13.7262 31.5819 14.4919 32.3456C15.2576 33.1094 15.6405 34.0275 15.6405 35.1C15.6405 36.1725 15.2576 37.0906 14.4919 37.8544C13.7262 38.6181 12.8057 39 11.7304 39ZM31.281 39C30.2057 39 29.2852 38.6181 28.5195 37.8544C27.7537 37.0906 27.3709 36.1725 27.3709 35.1C27.3709 34.0275 27.7537 33.1094 28.5195 32.3456C29.2852 31.5819 30.2057 31.2 31.281 31.2C32.3563 31.2 33.2768 31.5819 34.0425 32.3456C34.8082 33.1094 35.1911 34.0275 35.1911 35.1C35.1911 36.1725 34.8082 37.0906 34.0425 37.8544C33.2768 38.6181 32.3563 39 31.281 39ZM10.0686 7.8L14.7607 17.55H28.4461L33.8226 7.8H10.0686ZM8.21126 3.9H37.0484C37.7979 3.9 38.3681 4.23313 38.7591 4.89938C39.1501 5.56563 39.1664 6.24 38.808 6.9225L31.8675 19.4025C31.5091 20.0525 31.0285 20.5563 30.4256 20.9138C29.8228 21.2713 29.163 21.45 28.4461 21.45H13.8809L11.7304 25.35H35.1911V29.25H11.7304C10.2641 29.25 9.15621 28.6081 8.40677 27.3244C7.65732 26.0406 7.62474 24.765 8.30901 23.4975L10.9483 18.72L3.91012 3.9H0V0H6.35395L8.21126 3.9Z" fill="black"/>
</svg>
